HIERARCHY
ROOT Hips
{
	OFFSET 0.000000 0.000000 0.000000 
	CHANNELS 6 Xposition Yposition Zposition Zrotation Yrotation Xrotation
	JOINT LeftUpLeg
	{
		OFFSET 1.363060 -1.794630 0.839290 
		CHANNELS 3 Zrotation Yrotation Xrotation
		JOINT LeftLeg
		{
			OFFSET 2.448110 -6.726130 0.000000 
			CHANNELS 3 Zrotation Yrotation Xrotation
			JOINT LeftFoot
			{
				OFFSET 2.562200 -7.039590 0.000000 
				CHANNELS 3 Zrotation Yrotation Xrotation
				JOINT LeftToeBase
				{
					OFFSET 0.157640 -0.433110 2.322550 
					CHANNELS 3 Zrotation Yrotation Xrotation
					End Site
					{
						OFFSET 0.000000 0.000000 0.000000 
					}
				}
			}
		}
	}
	JOINT RightUpLeg
	{
		OFFSET -1.305520 -1.794630 0.839290 
		CHANNELS 3 Zrotation Yrotation Xrotation
		JOINT RightLeg
		{
			OFFSET -2.542530 -6.985550 0.000000 
			CHANNELS 3 Zrotation Yrotation Xrotation
			JOINT RightFoot
			{
				OFFSET -2.568260 -7.056230 0.000000 
				CHANNELS 3 Zrotation Yrotation Xrotation
				JOINT RightToeBase
				{
					OFFSET -0.164730 -0.452590 2.363150 
					CHANNELS 3 Zrotation Yrotation Xrotation
					End Site
					{
						OFFSET 0.000000 0.000000 0.000000 
					}
				}
			}
		}
	}
	JOINT Spine
	{
		OFFSET 0.028270 2.035590 -0.193380 
		CHANNELS 3 Zrotation Yrotation Xrotation
		JOINT Spine1
		{
			OFFSET 0.056720 2.048850 -0.042750 
			CHANNELS 3 Zrotation Yrotation Xrotation
			JOINT Neck1
			{
				OFFSET -0.054170 1.746240 0.172020 
				CHANNELS 3 Zrotation Yrotation Xrotation
				JOINT Head
				{
					OFFSET 0.104070 1.761360 -0.123970 
					CHANNELS 3 Zrotation Yrotation Xrotation
					End Site
					{
						OFFSET 0.000000 0.000000 0.000000 
					}
				}
			}
			JOINT LeftArm
			{
				OFFSET 3.362410 1.200890 -0.311210 
				CHANNELS 3 Zrotation Yrotation Xrotation
				JOINT LeftForeArm
				{
					OFFSET 4.983000 -0.000000 -0.000000 
					CHANNELS 3 Zrotation Yrotation Xrotation
					JOINT LeftHand
					{
						OFFSET 3.483560 -0.000000 -0.000000 
						CHANNELS 3 Zrotation Yrotation Xrotation
						JOINT LeftHandIndex1
						{
							OFFSET 0.715260 -0.000000 -0.000000 
							CHANNELS 3 Zrotation Yrotation Xrotation
							End Site
							{
								OFFSET 0.000000 0.000000 0.000000 
							}
						}
					}
				}
			}
			JOINT RightArm
			{
				OFFSET -3.136600 1.374050 -0.404650 
				CHANNELS 3 Zrotation Yrotation Xrotation
				JOINT RightForeArm
				{
					OFFSET -5.241900 -0.000000 -0.000000 
					CHANNELS 3 Zrotation Yrotation Xrotation
					JOINT RightHand
					{
						OFFSET -3.444170 -0.000000 -0.000000 
						CHANNELS 3 Zrotation Yrotation Xrotation
						JOINT RightHandIndex1
						{
							OFFSET -0.622530 -0.000000 -0.000000 
							CHANNELS 3 Zrotation Yrotation Xrotation
							End Site
							{
								OFFSET 0.000000 0.000000 0.000000 
							}
						}
					}
				}
			}
		}
	}
}
MOTION
Frames: 9
Frame Time: 0.041667
1.345644 17.675732 0.443353 168.089818 77.740813 162.447222 -28.585198 -6.886666 2.178279 -0.822905 9.032802 25.276131 -3.764990 14.943322 -11.952736 0.134700 -2.365700 -6.517500 28.382268 8.509865 -15.374061 -10.103440 -20.072132 62.328442 4.314896 -18.949073 -9.940405 -2.406700 9.666300 -27.902800 0.959054 1.051530 1.291801 -4.529023 0.295273 4.848869 8.735083 0.210190 17.728330 -0.900000 1.658000 7.591800 -91.583026 -9.754471 28.217744 56.233301 -51.091836 -43.973517 2.433223 -5.266130 -19.076521 -7.125000 0.000000 0.000000 99.018694 9.347926 30.079329 -49.850543 50.210925 -34.763184 -0.939308 3.321992 -27.216721 7.125000 0.000000 0.000000 
1.629427 17.643748 0.316930 167.184371 77.919389 161.546655 -29.142441 -6.133591 3.295684 -0.851438 8.860389 25.040570 -3.543456 14.479723 -12.883956 0.083400 -1.862300 -5.125200 28.426309 9.632019 -16.843641 -9.085406 -19.795205 59.520559 4.351196 -19.350449 -12.460447 -2.098100 9.067600 -26.006900 0.988207 0.994559 1.299520 -4.391998 0.227793 4.843598 8.677912 0.217595 17.799178 -0.953500 1.674500 7.689700 -91.847934 -10.174018 28.359854 55.990327 -50.953225 -43.731296 2.505135 -5.237818 -19.255027 -7.125000 0.000000 0.000000 98.865122 9.217102 29.815391 -50.500442 50.482070 -35.361502 -0.899402 3.340537 -26.172224 7.125000 0.000000 0.000000 
1.917978 17.623860 0.196089 165.736753 77.927498 160.126845 -29.761882 -5.141313 4.440553 -0.910075 8.592876 24.494888 -3.509111 14.427412 -13.013333 0.082700 -1.854400 -5.103600 28.177047 10.690635 -17.952035 -7.910634 -19.309758 56.076801 4.488785 -20.050673 -14.051220 -2.122500 9.116600 -26.160800 1.020622 0.902223 1.333016 -4.127357 0.128168 4.938394 8.654038 0.289258 17.718450 -0.984400 1.695900 7.678600 -92.215565 -10.781072 28.354143 55.805506 -50.832954 -43.534102 2.558284 -5.214984 -19.575591 -7.125000 0.000000 0.000000 98.643635 9.166894 29.472788 -51.290053 50.806495 -36.104672 -0.893837 3.368669 -25.170692 7.125000 0.000000 0.000000 
2.210484 17.613509 0.082925 162.818264 77.889907 157.389685 -30.580332 -3.831251 5.548575 -1.024245 8.224985 23.624217 -3.484912 14.437114 -13.274302 0.110000 -2.138100 -5.887400 27.457493 11.977864 -18.829799 -6.637652 -18.626639 52.122804 4.714568 -20.909449 -14.707539 -2.127700 9.127200 -26.194100 1.040854 0.911746 1.444025 -3.697214 0.054242 5.415696 8.529930 0.350955 17.489529 -1.145000 1.697000 7.521900 -92.647307 -11.601239 28.280916 55.797776 -50.786411 -43.467161 2.574313 -5.246052 -19.808446 -7.125000 0.000000 0.000000 98.465014 9.209686 28.900513 -52.233099 51.214737 -37.051942 -0.907768 3.381959 -24.485263 7.125000 0.000000 0.000000 
2.507177 17.607344 -0.024424 159.711486 77.898884 154.472664 -31.327927 -2.317659 6.783643 -1.185254 7.709791 22.361615 -3.487928 14.482610 -13.334026 0.143100 -2.437700 -6.717000 26.642185 13.465797 -19.434749 -5.322245 -17.762402 47.825935 4.935590 -21.680931 -14.973405 -2.001200 8.868600 -25.385000 1.017431 1.003312 1.467179 -3.512359 0.057560 5.445226 8.463395 0.304304 17.283307 -1.276500 1.661800 7.347200 -92.940510 -12.043892 28.453314 56.083505 -50.853049 -43.696194 2.580994 -5.305297 -19.737531 -7.125000 0.000000 0.000000 98.546598 8.740446 28.132184 -53.477275 51.744195 -38.332497 -0.934667 3.377682 -24.015540 7.125000 0.000000 0.000000 
2.805498 17.600715 -0.132355 157.552721 77.827378 152.432684 -31.913895 -0.999162 8.314538 -1.374277 7.070627 20.802700 -3.508395 14.528484 -13.166109 0.130500 -2.328300 -6.413900 25.918589 14.828908 -19.748286 -4.031070 -16.727089 43.346229 5.131638 -22.345337 -15.160206 -1.710000 8.234000 -23.427200 1.006089 1.005282 1.488481 -3.408425 0.029071 5.447563 8.472586 0.339526 17.086350 -1.305100 1.655400 7.168800 -93.280628 -12.471609 28.597503 56.465708 -50.985157 -44.118393 2.666042 -5.280995 -19.567035 -7.125000 0.000000 0.000000 98.533385 8.491962 27.531118 -54.548326 52.177485 -39.406291 -0.963040 3.386332 -23.729326 7.125000 0.000000 0.000000 
3.108355 17.589085 -0.241681 155.803873 77.632986 150.868115 -32.484149 0.065286 9.993828 -1.581432 6.354865 19.040852 -3.573173 14.694133 -12.927839 0.102200 -2.061100 -5.674400 25.111458 16.179982 -19.933798 -2.837972 -15.588709 38.929822 5.247735 -22.793673 -15.726786 -1.417700 7.530100 -21.295800 0.990545 0.878060 1.490862 -3.402110 -0.058941 5.519809 8.396161 0.356922 17.068956 -1.365900 1.660800 7.151700 -93.583462 -12.925562 28.648732 56.886415 -51.153680 -44.632282 2.815664 -5.191385 -19.575100 -7.125000 0.000000 0.000000 98.494628 8.367252 27.192771 -55.438546 52.524823 -40.266881 -0.958863 3.407061 -23.500305 7.125000 0.000000 0.000000 
3.419470 17.570941 -0.348216 154.186875 77.396630 149.491547 -32.969579 1.177494 11.737263 -1.788392 5.564145 17.081086 -3.731365 15.088026 -12.386827 0.156600 -2.550100 -7.028500 24.218508 17.880280 -20.036163 -1.805335 -14.453026 34.790833 5.485855 -23.699166 -16.608169 -1.464100 7.647100 -21.647100 0.974734 0.744194 1.480920 -3.398462 -0.158510 5.631102 8.349539 0.311034 17.192372 -1.392300 1.652700 7.211600 -93.816404 -13.364128 28.832896 57.167242 -51.249045 -44.945183 2.890527 -5.163490 -19.657749 -7.125000 0.000000 0.000000 98.502300 7.959765 26.830111 -56.564516 52.979169 -41.394728 -0.963845 3.423758 -23.210518 7.125000 0.000000 0.000000 
3.733259 17.557333 -0.451843 152.892062 77.185613 148.352786 -33.270605 2.397992 13.637151 -1.973640 4.722409 15.031213 -3.883629 15.448380 -11.675569 0.312200 -3.591900 -9.931100 23.403267 19.832331 -19.797886 -0.972888 -13.414894 31.285083 5.340817 -23.520233 -18.322702 -1.322500 7.283300 -20.557300 0.977298 0.679062 1.494129 -3.367176 -0.230469 5.760133 8.303687 0.263138 17.307365 -1.416500 1.639800 7.220900 -94.110786 -13.890560 29.084778 56.945953 -51.125999 -44.735321 2.912987 -5.141815 -19.230660 -7.125000 0.000000 0.000000 98.440281 7.616909 26.354485 -57.466064 53.347422 -42.307713 -0.995469 3.437486 -23.027533 7.125000 0.000000 0.000000 
